<svg xmlns="http://www.w3.org/2000/svg" viewBox="0 0 948.44 657.04">
	<g>
		<g>
			<g>
				<g>
					<path d="M218.57,418.8C261.94,512,358,573.74,464.36,576.8c113.72,3.28,219.34-61,264.44-161.45h0" style="fill:none;stroke:#1d1d1b;stroke-miterlimit:10;stroke-width:20px"/>
					<path d="M218.57,168.13C261.94,74.9,358,13.18,464.36,10.12c113.72-3.27,219.34,61,264.44,161.45h0" style="fill:none;stroke:#1d1d1b;stroke-miterlimit:10;stroke-width:20px"/>
				</g>
				<circle cx="563.68" cy="221.52" r="141.73" style="fill:#1d1d1b"/>
				<circle cx="133.53" cy="562" r="85.04" style="fill:none;stroke:#1d1d1b;stroke-miterlimit:10;stroke-width:20px"/>
				<circle cx="757.15" cy="65.94" r="42.52" style="fill:none;stroke:#1d1d1b;stroke-miterlimit:10;stroke-width:20px"/>
			</g>
			<g>
				<path d="M5,194.24h99.49v52.64H64.05v19.88h37.78v51H64.05V337.6h43.1v52.64H5Zm32.19,29.12H83.74v-5H31.87V366.16H86.4v-5H37.19V294.76H81.08v-5H37.19Z" style="fill:#fff;stroke:#fff;stroke-miterlimit:10;stroke-width:8px"/>
				<path d="M288,370.64c-16.49,14.56-33.78,25.2-63,25.2-54,0-95-45.64-95-102.48s41-101.92,94.43-101.92c26.6,0,46.55,9,63.31,24.36l-33,52.64c-7.44-9.24-17-14.56-29-14.56-22.35,0-36.71,17.92-36.71,39.76s16,39.76,35.64,39.76c14.37,0,23.68-7,30.06-14.84ZM254.77,228.12a62.57,62.57,0,0,0-29-6.72c-36.44,0-68.1,29.12-68.1,72.24,0,40.32,28.73,72,68.1,72,13.57,0,21.28-2.8,29-6.44l-2.66-4.76c-7.44,3.36-14.63,5.6-26.33,5.6C189.6,360,163,330.32,163,293.64c0-40,30.33-66.36,62.78-66.36,10.64,0,17.55,1.68,26.07,5.6Z" style="fill:#fff;stroke:#fff;stroke-miterlimit:10;stroke-width:8px"/>
				<path d="M372.61,194.24V337h37.77v53.2H313.55v-196Zm-32.19,24.08V366.16h49.21v-5H345.74V218.32Z" style="fill:#fff;stroke:#fff;stroke-miterlimit:10;stroke-width:8px"/>
				<path d="M500.29,390.24H441.23v-196h59.06ZM473.42,218.32H468.1V366.16h5.32Z" style="fill:#fff;stroke:#fff;stroke-miterlimit:10;stroke-width:8px"/>
				<path d="M533.8,194.24H600c31.92,0,76.61,20.16,76.61,73.36,0,52.36-35.65,73.92-83.8,73.92v48.72H533.8Zm26.87,171.92H566V317.44h31.39c25.8,0,50.8-14.28,50.8-48.44,0-33.32-22.87-50.68-51.07-50.68H560.67ZM566,223.36h31.12c25.54,0,45.75,16.24,45.75,45.64,0,30.24-22.34,42.84-45.48,42.84H566Zm26.86,65.52h6.39c9.84,0,17.55-9.52,17.55-21,0-12.32-9-20.72-17.29-20.72h-6.65Z" style="fill:#fff;stroke:#fff;stroke-miterlimit:10;stroke-width:8px"/>
				<path d="M747.93,318.56,733,311c-18.09-9.24-36.45-23.8-36.45-56.28,0-34.44,25.28-63.28,59.86-63.28,24.2,0,47.34,12.32,58.25,20.44L791,255.56c-4.53-3.92-21.82-13.16-32.72-13.16-5.06,0-9.31,3.64-9.31,9.8s4,8.4,12,12.6L782,276c20.75,11.2,33.79,28.28,33.79,54.32,0,37.24-26.07,65.52-60.92,65.52-29.79,0-56.66-15.68-68.63-24.92l26.6-46.48c2.93,2.8,26.07,18.2,42.3,18.2a8.34,8.34,0,0,0,8.51-8.68C763.63,327.24,757.24,323.32,747.93,318.56Zm-31.39,41.16c7.19,4.76,21.82,10.92,38,10.92,19.42,0,37.51-14,37.51-39.76,0-14-6.65-25.2-20.75-33.32l-29.52-17.08c-11.71-6.72-16.23-15.68-16.23-27.16,0-17.92,10.91-33.6,31.12-33.6,11.44,0,22.88,4.76,26.34,7l2.39-4.76c-4.26-2.24-15.16-7.28-27.4-7.28-25,0-37.77,17.92-37.77,39.2,0,12.6,5.05,23.52,19.15,31.64l29.26,16.8c12.24,7,18.09,16.24,18.09,28.84,0,22.12-15.69,34.44-32.45,34.44-14.37,0-28.73-5.88-35.38-10.08Z" style="fill:#fff;stroke:#fff;stroke-miterlimit:10;stroke-width:8px"/>
				<path d="M841.29,194.24h99.49v52.64H900.35v19.88h37.77v51H900.35V337.6h43.09v52.64H841.29Zm32.19,29.12H920v-5H868.16V366.16h54.53v-5H873.48V294.76h43.89v-5H873.48Z" style="fill:#fff;stroke:#fff;stroke-miterlimit:10;stroke-width:8px"/>
				<path d="M5,194.24h99.49v52.64H64.05v19.88h37.78v51H64.05V337.6h43.1v52.64H5Zm5.32,190.68h91.51v-42H58.73V312.4H96.51V272.08H58.73V241.56H99.17v-42H10.32Z" style="fill:#fff;stroke:#1d1d1b;stroke-linecap:square;stroke-miterlimit:10;stroke-width:10px"/>
				<path d="M288,370.64c-16.49,14.56-33.78,25.2-63,25.2-54,0-95-45.64-95-102.48s41-101.92,94.43-101.92c26.6,0,46.55,9,63.31,24.36l-33,52.64c-7.44-9.24-17-14.56-29-14.56-22.35,0-36.71,17.92-36.71,39.76s16,39.76,35.65,39.76c14.36,0,23.67-7,30.05-14.84Zm-34-43.4c-6.92,6.72-16.23,11.48-29.26,11.48-22.62,0-41-20.44-41-45.08s16.49-45.08,42-45.08a39.68,39.68,0,0,1,28.2,11.2l26.86-43.12c-15.16-12.88-32.72-19.88-56.39-19.88-50.54,0-89.11,42.84-89.11,96.6s38.57,97.16,89.64,97.16c25,0,41.23-8.68,56.13-21Z" style="fill:#fff;stroke:#1d1d1b;stroke-linecap:square;stroke-miterlimit:10;stroke-width:10px"/>
				<path d="M372.61,194.24V337h37.77v53.2H313.55v-196Zm-53.74,5.32V384.92h86.19V342.36H367.29V199.56Z" style="fill:#fff;stroke:#1d1d1b;stroke-linecap:square;stroke-miterlimit:10;stroke-width:10px"/>
				<path d="M500.29,390.24H441.23v-196h59.06ZM495,199.56H446.55V384.92H495Z" style="fill:#fff;stroke:#1d1d1b;stroke-linecap:square;stroke-miterlimit:10;stroke-width:10px"/>
				<path d="M533.8,194.24H600c31.92,0,76.61,20.16,76.61,73.36,0,52.36-35.65,73.92-83.8,73.92v48.72H533.8Zm5.32,190.68h48.41V336.2h7.19c44.42,0,76.61-22.4,76.61-68.6,0-49.28-41.5-68-71.29-68H539.12Zm48.41-143.08h12c10.91,0,22.61,10.64,22.61,26,0,14.28-10.1,26.32-22.87,26.32H587.53Zm5.32,47h6.39c9.84,0,17.55-9.52,17.55-21,0-12.32-9-20.72-17.29-20.72h-6.65Z" style="fill:#fff;stroke:#1d1d1b;stroke-linecap:square;stroke-miterlimit:10;stroke-width:10px"/>
				<path d="M747.93,318.56,733,311c-18.09-9.24-36.45-23.8-36.45-56.28,0-34.44,25.28-63.28,59.86-63.28,24.2,0,47.34,12.32,58.25,20.44L791,255.56c-4.53-3.92-21.82-13.16-32.72-13.16-5.06,0-9.31,3.64-9.31,9.8s4,8.4,12,12.6L782,276c20.75,11.2,33.79,28.28,33.79,54.32,0,37.24-26.07,65.52-60.92,65.52-29.79,0-56.66-15.68-68.63-24.92l26.6-46.48c2.93,2.8,26.07,18.2,42.3,18.2a8.34,8.34,0,0,0,8.51-8.68C763.63,327.24,757.24,323.32,747.93,318.56Zm7.19,29.4c-13.57,0-31.66-9.8-40.7-15.68l-21.28,37.24c12.77,9,36.44,21,61.71,21,31.92,0,55.6-26,55.6-60.2,0-24.36-13-40-30.86-49.56l-21-11.2c-9.84-5.32-14.89-8.12-14.89-17.36,0-9.52,6.65-15.12,14.63-15.12,9.84,0,23.41,5.88,31.12,10.64l18.36-34.16c-11.44-7.56-31.39-16.8-51.34-16.8-31.39,0-54.53,26.32-54.53,58,0,29.68,16.75,43.12,33.51,51.52l14.9,7.56C761,319.12,769,324.16,769,334,769,343.48,761.5,348,755.12,348Z" style="fill:#fff;stroke:#1d1d1b;stroke-linecap:square;stroke-miterlimit:10;stroke-width:10px"/>
				<path d="M841.29,194.24h99.49v52.64H900.35v19.88h37.77v51H900.35V337.6h43.09v52.64H841.29Zm5.33,190.68h91.5v-42H895V312.4H932.8V272.08H895V241.56h40.43v-42H846.62Z" style="fill:#fff;stroke:#1d1d1b;stroke-linecap:square;stroke-miterlimit:10;stroke-width:10px"/>
			</g>
		</g>
	</g>
</svg>
